<svg xmlns="http://www.w3.org/2000/svg" width="24.927" height="24.924" viewBox="0 0 24.927 24.924"><defs><style>.a{fill:#238a8c;}</style></defs><path class="a" d="M-6.452-11.86q1.83-2.8,3.549-2.8a2.442,2.442,0,0,1,1.774.776,15.872,15.872,0,0,1,2.135,2.578,3.852,3.852,0,0,1,.8,3.188,2.271,2.271,0,0,1-.485.859Q.95-6.814.091-5.955A11.423,11.423,0,0,0-.963-4.818q-.277.388.527,1.663A22.989,22.989,0,0,0,2.309.117,27.1,27.1,0,0,0,5.053,2.473a4.1,4.1,0,0,0,1.968.97.394.394,0,0,0,.222-.055q.25-.194,1.137-1.054Q9.267,1.447,9.7,1.087a2.235,2.235,0,0,1,.846-.471A2.177,2.177,0,0,1,11.236.5a5.065,5.065,0,0,1,2.772,1.109,14.816,14.816,0,0,1,2.273,1.941,2.321,2.321,0,0,1,.776,2.024q-.166,1.58-2.772,3.3a8.847,8.847,0,0,1-4.879,1.386A13.283,13.283,0,0,1,3.57,8.78a21.141,21.141,0,0,1-5.725-4.2A24.175,24.175,0,0,1-5.4.588,16.38,16.38,0,0,1-7.339-3.654,9.615,9.615,0,0,1-6.452-11.86Zm1,7.652A15.118,15.118,0,0,0-3.708-.466,20.586,20.586,0,0,0-.769,3.194,23.816,23.816,0,0,0,1.782,5.412,18.988,18.988,0,0,0,4.416,7.02a15.045,15.045,0,0,0,2.578.943A9.349,9.349,0,0,0,9.406,8.3a6.814,6.814,0,0,0,3.8-1.081,9.436,9.436,0,0,0,1.442-1.109,1.393,1.393,0,0,0,.471-.749.5.5,0,0,0-.222-.416,15.179,15.179,0,0,0-2-1.719,3.4,3.4,0,0,0-1.663-.749.113.113,0,0,0-.083.028,1.1,1.1,0,0,0-.333.25q-.3.25-1.054.97A12.852,12.852,0,0,1,8.408,5l-.055.028a2.344,2.344,0,0,1-1.331.388A3.681,3.681,0,0,1,5.58,5.079a8.142,8.142,0,0,1-1.691-1A33.678,33.678,0,0,1,.95,1.558L.922,1.531.867,1.475A25.639,25.639,0,0,1-2.1-2.1a6.7,6.7,0,0,1-.665-1.3A3.8,3.8,0,0,1-2.987-4.43a2.3,2.3,0,0,1,.416-1.525,13.291,13.291,0,0,1,1.22-1.331l.055-.055q.721-.721.97-1.026a2.612,2.612,0,0,0,.25-.36q.111-.444-.582-1.525A14.035,14.035,0,0,0-2.515-12.47a.608.608,0,0,0-.388-.222,1.232,1.232,0,0,0-.721.416,8.454,8.454,0,0,0-1.164,1.5A6.859,6.859,0,0,0-5.842-7.84,9.656,9.656,0,0,0-5.454-4.208Z" transform="translate(7.851 14.66)"/></svg>