<svg xmlns="http://www.w3.org/2000/svg" width="74" height="74" viewBox="0 0 74 74"><defs><style>.a{fill:#edc3d0;}.b{fill:#84dbff;}.c{fill:#fff;}.d{fill:#54c0eb;}.e{fill:#324a5e;}</style></defs><g transform="translate(-563 -439)"><path class="a" d="M37,0A37,37,0,1,1,0,37,37,37,0,0,1,37,0Z" transform="translate(563 439)"/><g transform="translate(573.768 449.899)"><g transform="translate(0 39.984)"><path class="b" d="M253.119,362.8c-.053,0-.106.053-.16.053s-.106-.053-.16-.053Z" transform="translate(-226.715 -359.34)"/><path class="b" d="M109.29,347.074a33.785,33.785,0,0,1-52.49,0c4.419-5.909,11.179-8.837,16.716-10.274a18.574,18.574,0,0,0,1.437,8.092c1.863-4.259,8.092-4.631,8.092-4.631s6.229.373,8.039,4.631a17.767,17.767,0,0,0,1.437-8.092C98.111,338.237,104.925,341.165,109.29,347.074Z" transform="translate(-56.8 -336.8)"/></g><path class="c" d="M212.025,298.476v.053c0,.532-.266,3.939-7.453,6.655h-.319c-7.187-2.715-7.453-6.122-7.453-6.655v-.053a9.349,9.349,0,0,1,.319-2.076c2.076,2.609,4.578,4.365,7.293,4.365s5.217-1.757,7.293-4.365A9.348,9.348,0,0,1,212.025,298.476Z" transform="translate(-178.168 -261.793)"/><g transform="translate(16.667 36.683)"><path class="d" d="M261.613,312s.373,3.833-7.613,6.814c0,0,6.229.373,8.039,4.632C262.145,323.552,265.712,314.289,261.613,312Z" transform="translate(-244.422 -312)"/><path class="d" d="M184,312c-4.1,2.289-.532,11.552-.426,11.392,1.863-4.259,8.039-4.631,8.039-4.631C183.623,315.833,184,312,184,312Z" transform="translate(-182.03 -312)"/></g><g transform="translate(12.171 9.548)"><path class="c" d="M194.439,121.777a15.153,15.153,0,0,1-4.312,8.731,10.3,10.3,0,0,1-1.437,1.224l-.852-2.715h-9.156l-.852,2.715c-1.7-1.278-5.27-4.844-5.324-8.2-1.491-19.112,13.149-15.066,13.149-15.066C195.5,107.776,195.184,116.453,194.439,121.777Z" transform="translate(-169.185 -108.11)"/><path class="c" d="M335.115,203.511a5.445,5.445,0,0,1-2.715,2.4,22.6,22.6,0,0,0,.958-2.662v-.053l.639-2.4h-.053c.213-.8.426-1.6.586-2.4a1.514,1.514,0,0,1,.639.213C336.339,199.358,336.286,201.541,335.115,203.511Z" transform="translate(-307.892 -186.383)"/><path class="c" d="M151.889,206.946a5.445,5.445,0,0,1-2.715-2.4c-1.224-1.97-1.224-4.152-.053-4.844.107-.053.16-.106.266-.106a36.247,36.247,0,0,0,1.544,4.738A25.773,25.773,0,0,0,151.889,206.946Z" transform="translate(-148.249 -187.424)"/></g><path class="e" d="M164.789,40.951c.426-4.9-7.346-4.578-7.346-4.578A15.056,15.056,0,0,0,144.4,49.042l1.6-1.916c-2.5,5.483,1.278,14.906,1.6,15.651,1.97,6.548,6.335,12.564,11.392,12.564s9.423-6.016,11.392-12.564h0v-.053c.213-.8.426-1.6.586-2.4h-.053c1.065-4.259,2.236-8.571,2.236-8.571C176.182,36.479,164.789,40.951,164.789,40.951Zm5.377,18.632a15.152,15.152,0,0,1-4.312,8.731,14.664,14.664,0,0,1-1.437,1.224l-.852-2.662h-9.157l-.852,2.715a16.724,16.724,0,0,1-4.312-5.057,11.3,11.3,0,0,1-1.011-3.141c-1.491-19.112,13.149-15.066,13.149-15.066C171.231,45.582,170.911,54.259,170.166,59.583Z" transform="translate(-132.741 -36.368)"/><g transform="translate(11.659 0)"><path class="e" d="M164.789,40.951c.426-4.9-7.346-4.578-7.346-4.578A15.056,15.056,0,0,0,144.4,49.042l1.6-1.916c-2.5,5.483,1.278,14.906,1.6,15.651,1.97,6.548,6.335,12.564,11.392,12.564s9.423-6.016,11.392-12.564h0v-.053c.213-.8.426-1.6.586-2.4h-.053c1.065-4.259,2.236-8.571,2.236-8.571C176.182,36.479,164.789,40.951,164.789,40.951Zm5.377,18.632a15.152,15.152,0,0,1-4.312,8.731,14.664,14.664,0,0,1-1.437,1.224l-.852-2.662h-9.157l-.852,2.715a16.724,16.724,0,0,1-4.312-5.057,11.3,11.3,0,0,1-1.011-3.141c-1.491-19.112,13.149-15.066,13.149-15.066C171.231,45.582,170.911,54.259,170.166,59.583Z" transform="translate(-144.4 -36.368)"/></g><path class="e" d="M164.789,40.951c.426-4.9-7.346-4.578-7.346-4.578A15.056,15.056,0,0,0,144.4,49.042l1.6-1.916c-2.5,5.483,1.278,14.906,1.6,15.651,1.97,6.548,6.335,12.564,11.392,12.564s9.423-6.016,11.392-12.564h0v-.053c.213-.8.426-1.6.586-2.4h-.053c1.065-4.259,2.236-8.571,2.236-8.571C176.182,36.479,164.789,40.951,164.789,40.951Zm5.377,18.632a15.152,15.152,0,0,1-4.312,8.731,14.664,14.664,0,0,1-1.437,1.224l-.852-2.662h-9.157l-.852,2.715c-1.7-1.278-5.27-4.844-5.324-8.2-1.491-19.112,13.149-15.066,13.149-15.066C171.231,45.582,170.911,54.259,170.166,59.583Z" transform="translate(-132.741 -36.368)"/><path class="c" d="M226,279.2a5.027,5.027,0,0,0,3.727,1.7,4.844,4.844,0,0,0,3.727-1.7Z" transform="translate(-203.481 -246.882)"/></g></g></svg>