<svg xmlns="http://www.w3.org/2000/svg" width="33.203" height="33.203"><defs><style>.a{fill:#238a8c}</style></defs><path class="a" d="M17.643 33.2H15.56a3.06 3.06 0 01-3.06-3.053v-.7a13.4 13.4 0 01-2.081-.864l-.5.5a3.057 3.057 0 01-4.323 0L4.126 27.6a3.056 3.056 0 010-4.323l.5-.5a13.405 13.405 0 01-.864-2.077h-.7A3.06 3.06 0 010 17.644V15.56a3.06 3.06 0 013.057-3.06h.7a13.408 13.408 0 01.864-2.081l-.5-.5a3.057 3.057 0 010-4.323L5.6 4.126a3.056 3.056 0 014.323 0l.5.5a13.417 13.417 0 012.077-.864v-.7A3.06 3.06 0 0115.56 0h2.084A3.06 3.06 0 0120.7 3.057v.7a13.4 13.4 0 012.081.864l.5-.5a3.057 3.057 0 014.323 0L29.077 5.6a3.056 3.056 0 010 4.323l-.5.5a13.406 13.406 0 01.864 2.081h.7A3.06 3.06 0 0133.2 15.56v2.084a3.06 3.06 0 01-3.053 3.056h-.7a13.408 13.408 0 01-.864 2.081l.5.5a3.057 3.057 0 010 4.323L27.6 29.077a3.056 3.056 0 01-4.323 0l-.5-.5a13.417 13.417 0 01-2.081.864v.7a3.06 3.06 0 01-3.053 3.059zm-6.9-6.669a11.466 11.466 0 002.972 1.234.973.973 0 01.73.942v1.436a1.112 1.112 0 001.111 1.111h2.084a1.112 1.112 0 001.111-1.111V28.71a.973.973 0 01.73-.942 11.466 11.466 0 002.972-1.234.973.973 0 011.183.149l1.021 1.017a1.111 1.111 0 001.571 0l1.472-1.472a1.111 1.111 0 000-1.571l-1.018-1.018a.973.973 0 01-.149-1.183 11.464 11.464 0 001.234-2.972.973.973 0 01.942-.73h1.436a1.112 1.112 0 001.111-1.111V15.56a1.112 1.112 0 00-1.111-1.111H28.71a.973.973 0 01-.942-.73 11.467 11.467 0 00-1.234-2.972.973.973 0 01.149-1.183L27.7 8.546a1.111 1.111 0 000-1.571L26.228 5.5a1.111 1.111 0 00-1.571 0L23.64 6.519a.973.973 0 01-1.183.149 11.466 11.466 0 00-2.972-1.234.973.973 0 01-.73-.942V3.057a1.112 1.112 0 00-1.111-1.111H15.56a1.112 1.112 0 00-1.111 1.111v1.436a.973.973 0 01-.73.942 11.466 11.466 0 00-2.972 1.234.973.973 0 01-1.183-.149L8.546 5.5a1.111 1.111 0 00-1.571 0L5.5 6.975a1.111 1.111 0 000 1.571l1.019 1.018a.973.973 0 01.149 1.183 11.464 11.464 0 00-1.234 2.972.973.973 0 01-.942.73H3.057a1.112 1.112 0 00-1.111 1.111v2.084a1.112 1.112 0 001.111 1.111h1.436a.973.973 0 01.942.73 11.466 11.466 0 001.234 2.972.973.973 0 01-.149 1.183L5.5 24.657a1.111 1.111 0 000 1.571L6.975 27.7a1.111 1.111 0 001.571 0l1.018-1.018a.977.977 0 011.183-.149z"/><path class="a" d="M16.601 23.826a7.224 7.224 0 117.224-7.224 7.232 7.232 0 01-7.224 7.224zm0-12.5a5.279 5.279 0 105.279 5.279 5.285 5.285 0 00-5.279-5.282z"/></svg>