<svg xmlns="http://www.w3.org/2000/svg" width="25.966" height="25.962"><path d="M1.457 2.917Q3.363 0 5.157 0a2.544 2.544 0 011.848.809 16.534 16.534 0 012.224 2.686 4.012 4.012 0 01.837 3.321 2.366 2.366 0 01-.505.9q-.39.462-1.285 1.357a11.9 11.9 0 00-1.1 1.184q-.289.4.549 1.733a23.946 23.946 0 002.858 3.402 28.229 28.229 0 002.859 2.455 4.276 4.276 0 002.05 1.013.411.411 0 00.231-.058q.26-.2 1.184-1.1.924-.924 1.372-1.3a2.328 2.328 0 01.881-.491 2.268 2.268 0 01.722-.116 5.276 5.276 0 012.888 1.155 15.433 15.433 0 012.368 2.022 2.418 2.418 0 01.813 2.109q-.173 1.646-2.888 3.437a9.216 9.216 0 01-5.087 1.442 13.836 13.836 0 01-6.079-1.543 22.022 22.022 0 01-5.964-4.375 25.182 25.182 0 01-3.382-4.159A17.062 17.062 0 01.533 11.46a10.015 10.015 0 01.924-8.543zm1.04 7.971a15.748 15.748 0 001.819 3.898 21.444 21.444 0 003.061 3.812 24.808 24.808 0 002.657 2.31 19.779 19.779 0 002.744 1.675 15.671 15.671 0 002.685.977 9.738 9.738 0 002.512.347 7.1 7.1 0 003.956-1.126 9.83 9.83 0 001.5-1.155 1.451 1.451 0 00.491-.78.518.518 0 00-.231-.433 15.811 15.811 0 00-2.079-1.79 3.536 3.536 0 00-1.733-.78.118.118 0 00-.087.029 1.144 1.144 0 00-.347.26q-.318.26-1.1 1.011a13.387 13.387 0 01-1.409 1.332l-.058.029a2.441 2.441 0 01-1.386.4 3.835 3.835 0 01-1.5-.347 8.481 8.481 0 01-1.762-1.04 35.081 35.081 0 01-3.062-2.623l-.029-.029-.058-.058a26.707 26.707 0 01-3.09-3.725 6.977 6.977 0 01-.693-1.357 3.963 3.963 0 01-.231-1.065A2.4 2.4 0 015.5 9.072a13.845 13.845 0 011.271-1.39l.058-.058q.75-.751 1.01-1.064a2.72 2.72 0 00.26-.375q.116-.462-.606-1.588a14.62 14.62 0 00-1.935-2.31.634.634 0 00-.4-.231 1.283 1.283 0 00-.751.433 8.806 8.806 0 00-1.213 1.559 7.144 7.144 0 00-1.1 3.061 10.059 10.059 0 00.403 3.778z" fill="#3e3d3d"/></svg>