<svg xmlns="http://www.w3.org/2000/svg" width="27.264" height="27.264"><path d="M10.508 9.088h-8.52A1.99 1.99 0 010 7.1V1.988A1.99 1.99 0 011.988 0h8.52A1.99 1.99 0 0112.5 1.988V7.1a1.99 1.99 0 01-1.992 1.988zM1.988 1.7a.284.284 0 00-.284.284V7.1a.284.284 0 00.284.284h8.52a.284.284 0 00.284-.284V1.988a.284.284 0 00-.284-.284zm8.52 25.564h-8.52A1.99 1.99 0 010 25.276V13.348a1.99 1.99 0 011.988-1.988h8.52a1.99 1.99 0 011.992 1.988v11.928a1.99 1.99 0 01-1.992 1.988zm-8.52-14.2a.284.284 0 00-.284.284v11.928a.284.284 0 00.284.284h8.52a.284.284 0 00.284-.284V13.348a.284.284 0 00-.284-.284zm23.288 14.2h-8.52a1.99 1.99 0 01-1.988-1.988v-5.112a1.99 1.99 0 011.988-1.988h8.52a1.99 1.99 0 011.988 1.988v5.112a1.99 1.99 0 01-1.988 1.988zm-8.52-7.384a.284.284 0 00-.284.284v5.112a.284.284 0 00.284.284h8.52a.284.284 0 00.284-.284v-5.112a.284.284 0 00-.284-.284zm8.52-3.98h-8.52a1.99 1.99 0 01-1.988-1.988V1.988A1.99 1.99 0 0116.756 0h8.52a1.99 1.99 0 011.988 1.988v11.928a1.99 1.99 0 01-1.988 1.984zm-8.52-14.2a.284.284 0 00-.284.284v11.932a.284.284 0 00.284.284h8.52a.284.284 0 00.284-.284V1.988a.284.284 0 00-.284-.284zm0 0" fill="#3e3d3d"/></svg>