<svg xmlns="http://www.w3.org/2000/svg" width="25.58" height="25.582"><defs><style>.a{fill:#3e3d3d}</style></defs><path class="a" d="M25.528 15.717l-1.124-2.926 1.122-2.927a.8.8 0 00-.243-.908l-2.435-1.973-.492-3.1a.8.8 0 00-.663-.663l-3.1-.492L16.623.3a.8.8 0 00-.908-.243l-2.926 1.12L9.862.054A.8.8 0 008.956.3L6.983 2.732l-3.1.492a.8.8 0 00-.663.663l-.492 3.1-2.432 1.97a.8.8 0 00-.243.906l1.122 2.927-1.122 2.928a.8.8 0 00.243.906L2.731 18.6l.492 3.1a.8.8 0 00.663.663l3.097.487 1.973 2.435a.8.8 0 00.908.243l2.926-1.122 2.927 1.122a.809.809 0 00.286.053.8.8 0 00.622-.3l1.973-2.435 3.1-.492a.8.8 0 00.663-.663l.492-3.1 2.43-1.966a.8.8 0 00.245-.908zm-2.729-2.639l1.025 2.67-2.224 1.8a.8.8 0 00-.286.5l-.449 2.825-2.825.449a.8.8 0 00-.5.286l-1.8 2.224-2.663-1.032a.848.848 0 00-.288-.053.8.8 0 00-.286.053l-2.67 1.025-1.8-2.225a.8.8 0 00-.5-.286l-2.82-.446-.449-2.825a.8.8 0 00-.286-.5l-2.224-1.8 1.029-2.664a.8.8 0 000-.574L1.754 9.834l2.224-1.8a.8.8 0 00.286-.5l.449-2.821 2.825-.449a.8.8 0 00.5-.286l1.8-2.222 2.67 1.025a.8.8 0 00.572 0l2.67-1.025 1.8 2.224a.8.8 0 00.5.286l2.825.449.449 2.825a.8.8 0 00.286.5l2.224 1.8-1.035 2.66a.8.8 0 000 .577z"/><path class="a" d="M10.391 6.396a2.4 2.4 0 102.4 2.4 2.4 2.4 0 00-2.4-2.4zm0 3.2a.8.8 0 11.8-.8.8.8 0 01-.8.797zm4.796 4.794a2.4 2.4 0 102.4 2.4 2.4 2.4 0 00-2.4-2.4zm0 3.2a.8.8 0 11.8-.8.8.8 0 01-.8.797zm2.065-11.043a.8.8 0 00-1.114.185L8.145 17.923a.8.8 0 001.3.929l7.993-11.191a.8.8 0 00-.186-1.114z"/></svg>