<svg xmlns="http://www.w3.org/2000/svg" viewBox="0 0 15 15"><path class="st0" d="M8.075 3.21a4.407 4.407 0 00-4.95 3.8 4.407 4.407 0 003.8 4.95 4.407 4.407 0 004.95-4.95 4.414 4.414 0 00-3.8-3.8zm-.02 7.59c-1.78.31-3.47-.89-3.77-2.66-.31-1.78.89-3.47 2.66-3.77a3.258 3.258 0 013.77 3.77 3.275 3.275 0 01-2.66 2.66zM7.335.28a.57.57 0 00-.57.57v.79a.57.57 0 101.14 0V.85a.557.557 0 00-.57-.57zm-.57 13.24v.79a.57.57 0 101.14 0v-.79a.57.57 0 10-1.14 0zm-5.21-6.51h-.79a.57.57 0 100 1.14h.79c.32 0 .57-.26.57-.57 0-.32-.25-.57-.57-.57zm12.68 0h-.79a.57.57 0 100 1.14h.79a.57.57 0 100-1.14zM3.555 3.12l-.56-.55a.57.57 0 00-.81.01.57.57 0 00.01.81l.56.55c.23.22.59.22.81-.01a.59.59 0 00-.01-.81zm7.67 9.15l.56.55c.23.22.59.22.81-.01a.57.57 0 00-.01-.81l-.56-.55a.57.57 0 00-.81.01.57.57 0 00.01.81zm-8.84.52c.23.22.59.22.81-.01l.55-.56a.57.57 0 00-.01-.81.57.57 0 00-.81.01l-.55.56a.57.57 0 00.01.81zm9.69-9.05l.55-.56a.57.57 0 00-.01-.81.57.57 0 00-.81.01l-.55.56a.57.57 0 00.01.81c.23.22.59.22.81-.01z"/></svg>