<svg xmlns="http://www.w3.org/2000/svg" width="23" height="23"><defs><style>.a{fill:#3e3d3d}</style></defs><path class="a" d="M7.733 6.186h1.348v1.348H7.733zm0 3.094h1.348v1.348H7.733zm6.186 0h1.343v1.348h-1.348zm3.094 0h1.348v1.348h-1.348zm-3.094 3.093h1.343v1.348h-1.348zm3.094 0h1.348v1.348h-1.348zm-3.094 3.093h1.343v1.348h-1.348zm3.094 0h1.348v1.348h-1.348zm-3.094 3.093h1.343v1.348h-1.348zm3.094 0h1.348v1.348h-1.348zM4.64 9.28h1.348v1.348H4.64zm3.093 3.093h1.348v1.348H7.733zm-3.093 0h1.348v1.348H4.64zm3.093 3.093h1.348v1.348H7.733zm-3.093 0h1.348v1.348H4.64z"/><path class="a" d="M21.453 21.652V6.186h-9.28V2.972l-1.547.258V0H3.093v4.485l-1.547.258v16.91H0V23h23v-1.348zM20.106 7.534v14.118h-7.932V7.534zM4.441 1.348H9.28v2.106l-4.839.806zM2.894 5.884l7.932-1.322v17.09H9.081v-3.093H4.64v3.093H2.894zm4.839 15.768H5.987v-1.745h1.746z"/></svg>