<svg xmlns="http://www.w3.org/2000/svg" viewBox="0 0 23.6 23.6"><path class="st0" d="M9.7 23.1c-.1 0-.2-.1-.2-.1l-.6-2.4-.3-.1c-.3-.1-.5-.2-.8-.3l-.1-.2-2.1 1.3h-.1c-.1 0-.1 0-.1-.1l-2.9-2.9c-.1-.1-.1-.2 0-.2L3.6 16l-.1-.2c-.1-.3-.2-.5-.3-.8l-.1-.3-2.4-.6c-.1 0-.1-.1-.1-.2V9.7c0-.1.1-.2.1-.2l2.4-.6.1-.3c.1-.3.2-.5.3-.8l.1-.2-1.2-2.1v-.2l2.9-2.9.1-.1h.1l2.1 1.3.2-.1c.3-.1.5-.2.8-.3l.3-.1.6-2.4c0-.1.1-.1.2-.1h4.2c.1 0 .2.1.2.1l.6 2.4.3.1c.3.1.5.2.8.3l.2.1 2.1-1.3h.1c.1 0 .1 0 .1.1l2.9 2.9c.1.1.1.2 0 .2L20 7.7l.1.2c.1.3.2.5.3.8l.1.3 2.5.5c.1 0 .1.1.1.2v4.2c0 .1-.1.2-.1.2l-2.4.6-.1.2c-.1.3-.2.5-.3.8l-.2.3 1.3 2.1v.2l-2.9 2.9-.1.1h-.1L16 20l-.2.1c-.3.1-.5.2-.8.3l-.3.1-.6 2.5c0 .1-.1.1-.2.1H9.7zm.2-.4h3.8v-5.5l-.6.1c-.4.1-.8.1-1.3.1-.4 0-.9 0-1.3-.1l-.6-.1v5.5zM2.8 5.5L4 7.6v.2c-.2.4-.4.9-.6 1.4 0 .1-.1.1-.1.1l-2.4.6v3.8l2.4.6c.1 0 .1.1.1.1.2.5.4 1 .6 1.4v.2l-1.2 2.1 2.7 2.7 2.1-1.2h.1c.5.2.8.4 1.2.5l.7.2V17l-.3-.1C8 16.3 7 15.3 6.5 14c-.6-1.4-.6-3 0-4.4s1.7-2.5 3.1-3.1c.2 0 .2.1.2.2v5l1.9 1.3 1.9-1.3v-5c0-.2.1-.2.2-.2 1.4.5 2.4 1.5 3 2.8.7 1.4.8 2.9.3 4.4-.5 1.5-1.5 2.6-2.9 3.3l-.3.1v3.3l.7-.2c.4-.1.8-.3 1.1-.5h.2l2.1 1.2 2.7-2.7-1.2-2.1v-.2c.2-.5.4-.9.6-1.4 0-.1.1-.1.1-.1l2.4-.6V10l-2.4-.6c-.1 0-.1-.1-.1-.1-.2-.5-.4-1-.6-1.4v-.2l1.2-2.1L18 2.9 16.1 4H16c-.5-.3-1-.5-1.5-.6-.1 0-.1-.1-.1-.1L13.8.9H9.9l-.6 2.4c0 .1-.1.1-.1.1L7.7 4h-.2l-2-1.2-2.7 2.7zm6 1.9c-.5.4-1 .8-1.3 1.3-1.7 2.4-1.1 5.8 1.3 7.4.9.6 2 1 3 1 1.7 0 3.4-.9 4.4-2.3 1.7-2.4 1.1-5.8-1.3-7.4l-.8-.5v4.9c0 .1 0 .1-.1.2l-2.1 1.4h-.2L9.6 12c-.1 0-.1-.1-.1-.2V6.9l-.7.5z"/><path class="st0" d="M13.9 0H9.7c-.3 0-.6.2-.6.5l-.6 2.2c-.3.1-.5.2-.8.4L5.8 1.9c-.1 0-.2-.1-.4-.1-.1 0-.3.1-.4.2L2 5c-.2.2-.2.5-.1.8L3 7.7c-.1.3-.2.5-.3.8l-2.2.6c-.3 0-.5.3-.5.6v4.2c0 .3.2.6.5.7l2.2.5c.1.3.2.6.4.8L2 17.8c-.2.3-.1.6.1.8l2.9 3c.1.1.3.2.5.2.1 0 .2 0 .4-.1l1.9-1.1c.3.1.6.3.8.4l.5 2.2c.1.3.4.5.7.5H14c.3 0 .6-.2.7-.5l.5-2.2c.3-.1.6-.2.8-.4l1.9 1.1c.1.1.2.1.4.1s.4-.1.5-.2l2.9-2.9c.2-.2.3-.6.1-.8L20.7 16c.1-.3.3-.6.4-.8l2.2-.5c.3-.1.5-.4.5-.7V9.7c0-.3-.2-.6-.5-.7l-2.2-.5c-.1-.3-.2-.6-.4-.8l1.1-1.9c.2-.3.1-.6-.1-.8l-3-3c-.1-.1-.3-.2-.5-.2-.1 0-.2 0-.4.1L15.9 3c-.3-.1-.6-.3-.8-.4L14.6.4c-.1-.2-.4-.4-.7-.4zM7.7 4.5c.1 0 .2 0 .3-.1.4-.2.9-.4 1.3-.5.2-.1.4-.3.5-.5l.5-2h3.1l.5 2c.1.2.2.4.5.5.5.1.9.3 1.3.6.1.1.2.1.3.1.1 0 .2 0 .4-.1l1.7-1 2.2 2.2-1 1.7c-.1.2-.1.5 0 .7.2.4.4.9.6 1.3.1.2.3.4.5.5l2 .5v3.1l-2 .5c-.2.1-.4.2-.5.5-.1.5-.3.9-.6 1.3-.1.2-.1.5 0 .7l1 1.7-2.2 2.2-1.7-1c-.1-.1-.2-.1-.4-.1-.1 0-.2 0-.3.1-.3.2-.7.3-1.1.5v-2.2c3.1-1.5 4.3-5.3 2.8-8.3-.7-1.4-1.8-2.4-3.2-3-.1-.4-.2-.4-.3-.4-.3 0-.5.2-.6.4 0 .1-.1.2-.1.3v4.8l-1.4.9-1.4-.9V6.7c0-.4-.3-.7-.7-.7h-.2C6.3 7.3 4.7 11 6 14.1c.6 1.4 1.6 2.6 3 3.2v2.2c-.4-.1-.7-.3-1.1-.5-.1-.1-.2-.1-.3-.1-.1 0-.2 0-.4.1l-1.7 1-2.2-2.2 1-1.7c.1-.2.1-.5 0-.7-.2-.4-.4-.9-.6-1.3-.1-.2-.3-.4-.5-.5l-2-.5V10l2-.5c.2-.1.4-.2.5-.5.3-.1.5-.6.8-1 .1-.2.1-.5 0-.7l-1-1.7 2.2-2.2 1.7 1c0 .1.1.1.3.1zm4.1 9.4c.1 0 .3 0 .4-.1l2.1-1.4c.2-.1.3-.3.3-.6v-4c2.2 1.5 2.7 4.5 1.2 6.7-.9 1.4-2.4 2.1-4 2.1-1 0-1.9-.3-2.8-.9-2.2-1.4-2.7-4.5-1.2-6.7L9 7.8v4c0 .2.1.4.3.6l2.1 1.4c.1 0 .3.1.4.1zm0 4.1c.5 0 .9-.1 1.4-.2v4.4h-2.8v-4.4c.5.2.9.2 1.4.2z"/></svg>