<svg xmlns="http://www.w3.org/2000/svg" viewBox="0 0 20 20"><path class="st0" d="M10.7 8.2L13.9 5h-2.2c-.4 0-.8-.3-.8-.8s.3-.8.8-.8h2.9c1.1 0 2 .9 2 2v2.9c0 .4-.4.8-.8.8s-.8-.3-.8-.8V6.1l-3.2 3.2c-.3.3-.8.3-1.1 0-.3-.2-.4-.7 0-1.1-.1.1 0 .1 0 0zm-6.5 2.7c-.4 0-.8.4-.8.8v2.9c0 1.1.9 2 2 2h2.9c.4 0 .8-.4.8-.8s-.4-.8-.8-.8H6.1l3.2-3.2c.3-.3.3-.8.1-1.1s-.8-.3-1.1-.1L5 13.9v-2.2c0-.4-.3-.8-.8-.8z"/><path class="st0" d="M17.4 20H2.7C1.3 20 .2 18.9.2 17.5V2.6C.1 1.2 1.3 0 2.7 0h14.7c1.4 0 2.5 1.1 2.5 2.5v14.9c0 1.4-1.1 2.6-2.5 2.6zM2.7 1.5c-.6 0-1 .5-1 1v14.9c0 .6.5 1 1 1h14.7c.6 0 1-.5 1-1V2.6c0-.6-.5-1-1-1H2.7z"/></svg>