<svg xmlns="http://www.w3.org/2000/svg" viewBox="0 0 15 15"><path class="st0" d="M14.445 7.855a.705.705 0 00-.74-.03c-2.47 1.42-5.63.56-7.05-1.91-.8-1.39-.9-3.07-.29-4.55a.695.695 0 00-.38-.91.694.694 0 00-.45-.03c-3.87 1.1-6.12 5.13-5.02 9s5.13 6.12 9 5.02c2.75-.78 4.79-3.1 5.21-5.93.06-.24-.06-.51-.28-.66zm-6.9 5.58c-3.3 0-5.98-2.67-5.99-5.98a5.99 5.99 0 013.24-5.32c-.68 3.51 1.62 6.89 5.12 7.57 1.08.21 2.2.14 3.24-.21a6.028 6.028 0 01-5.61 3.94zm2.7-10.39l.83.44.03.03.44.83c.02.04.06.05.1.03l.03-.03.44-.83.03-.03.83-.44c.04-.02.05-.06.03-.1l-.03-.03-.83-.44-.03-.03-.44-.83c-.02-.04-.06-.05-.1-.03l-.03.03-.44.83-.03.03-.83.44c-.04.02-.05.06-.03.1l.03.03zm-1.44-1.69c.01 0 .01.01.02.02l.25.48c.01.02.04.03.06.02.01 0 .01-.01.02-.02l.25-.48c0-.01.01-.01.02-.02l.48-.25c.02-.01.03-.04.02-.06 0-.01-.01-.01-.02-.02l-.48-.25c-.01 0-.01-.01-.02-.02l-.25-.48c-.01-.02-.04-.03-.06-.02-.01 0-.01.01-.02.02l-.25.48c0 .01-.01.01-.02.02l-.48.25c-.02.01-.03.04-.02.06 0 .01.01.01.02.02l.48.25z"/></svg>