<svg xmlns="http://www.w3.org/2000/svg" viewBox="0 0 18 18"><path class="st0" d="M17 9.1V6.7c0-.8-.7-1.6-1.5-1.7l-2.3-3.9c-.2-.4-.6-.7-1-.8-.4-.1-.9-.1-1.3.2L3.2 5H1.9C.9 5 .2 5.8.2 6.7v9.5c0 .9.8 1.7 1.7 1.7h13.5c.9 0 1.7-.8 1.7-1.7v-2.4c.5-.2.8-.7.8-1.2v-2.4c-.1-.5-.4-.9-.9-1.1zm-3.3-5.4l.7 1.3h-3l2.3-1.3zm-.5-.8L9.5 5H8.3l4.6-2.7.3.6zm-1.7-1.6c.2-.1.3-.1.5-.1s.3.1.4.3L6.3 5H5.1l6.4-3.7zm4.6 14.9c0 .4-.3.7-.7.7H1.9c-.4 0-.7-.3-.7-.7V6.7c-.1-.4.3-.7.7-.7h13.5c.4 0 .7.3.7.7V9h-2.3c-.6 0-1.3.2-1.8.7-.5.5-.7 1.1-.8 1.7 0 1.4 1.1 2.5 2.4 2.5H16v2.3zm.7-3.6c0 .2-.1.3-.3.3h-2.8c-.8 0-1.5-.7-1.5-1.5s.7-1.5 1.5-1.5h2.8c.2 0 .3.1.3.3v2.4z"/><path class="st0" d="M14.6 11.5c0 .5-.4.9-.9.9s-.9-.4-.9-.9.4-.9.9-.9c.6 0 .9.4.9.9z"/></svg>